<svg width="31" height="35" viewBox="0 0 31 35" fill="none" xmlns="http://www.w3.org/2000/svg">
<path d="M9.42309 16.1539C7.63798 16.1539 5.92598 15.4447 4.66371 14.1825C3.40144 12.9202 2.69231 11.2082 2.69231 9.42309V4.03847C2.69231 3.68144 2.83414 3.33904 3.08659 3.08659C3.33904 2.83414 3.68144 2.69231 4.03847 2.69231H5.38462C5.74164 2.69231 6.08404 2.55048 6.3365 2.29803C6.58895 2.04558 6.73078 1.70318 6.73078 1.34616C6.73078 0.989133 6.58895 0.646733 6.3365 0.39428C6.08404 0.141827 5.74164 0 5.38462 0H4.03847C2.9674 0 1.9402 0.42548 1.18284 1.18284C0.42548 1.9402 0 2.9674 0 4.03847V9.42309C0.00173038 10.9439 0.372578 12.4415 1.08069 13.7874C1.78881 15.1333 2.81303 16.2872 4.06539 17.15C5.26862 18.2108 6.24442 19.5044 6.93389 20.9528C7.62336 22.4011 8.0122 23.9742 8.07693 25.577C8.07693 28.0761 9.06972 30.4729 10.8369 32.2401C12.6041 34.0073 15.0009 35 17.5 35C19.9992 35 22.396 34.0073 24.1632 32.2401C25.9303 30.4729 26.9231 28.0761 26.9231 25.577V24.0423C28.1921 23.7147 29.298 22.9355 30.0335 21.8508C30.7691 20.7661 31.0838 19.4503 30.9187 18.1502C30.7535 16.8501 30.1199 15.6548 29.1365 14.7884C28.1531 13.9221 26.8875 13.4441 25.577 13.4441C24.2664 13.4441 23.0008 13.9221 22.0174 14.7884C21.034 15.6548 20.4004 16.8501 20.2352 18.1502C20.0701 19.4503 20.3848 20.7661 21.1204 21.8508C21.8559 22.9355 22.9618 23.7147 24.2308 24.0423V25.577C24.2308 27.3621 23.5217 29.0741 22.2594 30.3363C20.9971 31.5986 19.2851 32.3077 17.5 32.3077C15.7149 32.3077 14.0029 31.5986 12.7406 30.3363C11.4784 29.0741 10.7692 27.3621 10.7692 25.577C10.8374 23.9722 11.2304 22.3979 11.9246 20.9495C12.6187 19.501 13.5996 18.2085 14.8077 17.15C16.0551 16.2842 17.0741 15.129 17.7774 13.7833C18.4807 12.4376 18.8475 10.9415 18.8462 9.42309V4.03847C18.8462 2.9674 18.4207 1.9402 17.6633 1.18284C16.906 0.42548 15.8788 0 14.8077 0H13.4616C13.1045 0 12.7621 0.141827 12.5097 0.39428C12.2572 0.646733 12.1154 0.989133 12.1154 1.34616C12.1154 1.70318 12.2572 2.04558 12.5097 2.29803C12.7621 2.55048 13.1045 2.69231 13.4616 2.69231H14.8077C15.1647 2.69231 15.5071 2.83414 15.7596 3.08659C16.012 3.33904 16.1539 3.68144 16.1539 4.03847V9.42309C16.1539 10.307 15.9798 11.1822 15.6415 11.9988C15.3033 12.8155 14.8075 13.5575 14.1825 14.1825C13.5575 14.8075 12.8155 15.3033 11.9988 15.6415C11.1822 15.9798 10.307 16.1539 9.42309 16.1539ZM25.577 21.5385C24.8629 21.5385 24.1781 21.2548 23.6732 20.7499C23.1683 20.245 22.8846 19.5602 22.8846 18.8462C22.8846 18.1321 23.1683 17.4473 23.6732 16.9424C24.1781 16.4375 24.8629 16.1539 25.577 16.1539C26.291 16.1539 26.9758 16.4375 27.4807 16.9424C27.9856 17.4473 28.2693 18.1321 28.2693 18.8462C28.2693 19.5602 27.9856 20.245 27.4807 20.7499C26.9758 21.2548 26.291 21.5385 25.577 21.5385Z" fill="#F8F8F8"/>
</svg>
