<svg width="33" height="35" viewBox="0 0 33 35" fill="none" xmlns="http://www.w3.org/2000/svg">
<path d="M16.25 17.5C17.9806 17.5 19.6723 16.9868 21.1112 16.0254C22.5502 15.0639 23.6717 13.6973 24.3339 12.0985C24.9962 10.4996 25.1695 8.7403 24.8319 7.04296C24.4943 5.34563 23.6609 3.78653 22.4372 2.56282C21.2135 1.33911 19.6544 0.505753 17.957 0.168133C16.2597 -0.169488 14.5004 0.00379123 12.9015 0.666058C11.3027 1.32832 9.9361 2.44983 8.97464 3.88876C8.01318 5.32769 7.5 7.01942 7.5 8.75C7.5 11.0706 8.42187 13.2962 10.0628 14.9372C11.7038 16.5781 13.9294 17.5 16.25 17.5ZM16.25 20C10.8266 20 0 23.35 0 30V35H32.5V30C32.5 23.35 21.6734 20 16.25 20Z" fill="#F8F8F8"/>
</svg>
