<svg width="21" height="21" viewBox="0 0 21 21" fill="none" xmlns="http://www.w3.org/2000/svg">
<path d="M9.19077 0L7.88155 3.11596C7.6197 3.19451 7.38404 3.32544 7.14838 3.45636L4.03242 2.14713L2.14713 4.03242L3.45636 7.14838C3.32544 7.41022 3.2207 7.6197 3.11596 7.88155L0 9.19077V11.8092L3.11596 13.1185C3.2207 13.3803 3.32544 13.5898 3.45636 13.8516L2.14713 16.9676L4.03242 18.8529L7.14838 17.5436C7.38404 17.6484 7.6197 17.7793 7.88155 17.884L9.19077 21H11.8092L13.1185 17.884C13.3541 17.7793 13.616 17.6746 13.8516 17.5436L16.9676 18.8529L18.8529 16.9676L17.5436 13.8516C17.6484 13.616 17.7793 13.3541 17.884 13.1185L21 11.8092V9.19077L17.884 7.88155C17.8055 7.64588 17.6746 7.38404 17.5436 7.14838L18.8529 4.03242L16.9676 2.14713L13.8516 3.45636C13.616 3.35162 13.3541 3.2207 13.1185 3.11596L11.8092 0L9.19077 0ZM10.5 6.54613C12.6733 6.54613 14.4277 8.3005 14.4277 10.4738C14.4277 12.6471 12.6733 14.4015 10.5 14.4015C8.32668 14.4015 6.57232 12.6471 6.57232 10.4738C6.57232 8.3005 8.32668 6.54613 10.5 6.54613Z" fill="black"/>
</svg>
