<svg width="40" height="40" viewBox="0 0 40 40" fill="none" xmlns="http://www.w3.org/2000/svg">
<path d="M34.9367 10.2128H30.8333V5.76511C30.8333 2.58553 28.3767 0 25.255 0H14.7458C11.6225 0 9.16667 2.58553 9.16667 5.76511V10.2128H5.0625C2.26583 10.2128 0 12.4179 0 15.2655V34.846C0 37.6928 2.26583 40 5.0625 40H34.9367C37.7325 40 40 37.6928 40 34.8451V15.2655C40 12.4179 37.7325 10.2128 34.9367 10.2128ZM12.5 5.76511C12.5 4.57447 13.5767 3.40426 14.7458 3.40426H25.255C26.4208 3.40426 27.5 4.57447 27.5 5.76511V10.2128H12.5V5.76511ZM29.1667 28.9362H23.3333V34.8936H16.6667V28.9362H10.8333V22.1277H16.6667V16.1702H23.3333V22.1277H29.1667V28.9362Z" fill="#F8F8F8"/>
</svg>
